<svg width="808" height="258" viewBox="0 0 808 258" fill="none" xmlns="http://www.w3.org/2000/svg">
<g filter="url(#filter0_d)">
<g filter="url(#filter1_d)">
<path d="M132.467 31.713H150.146L147.004 52.2208L132.467 54.4993V31.713Z" fill="white"/>
<path fill-rule="evenodd" clip-rule="evenodd" d="M153.865 0L121.969 6.77957L128.749 38.675L160.644 31.8954L153.865 0ZM148.539 7.35525L129.325 11.4393L133.409 30.6534L152.623 26.5693L148.539 7.35525Z" fill="white"/>
<path d="M136.396 15.6676L144.082 14.034L145.715 21.7196L138.03 23.3533L136.396 15.6676Z" fill="white"/>
</g>
<g filter="url(#filter2_d)">
<path d="M71.9659 31.713H54.2869L57.4299 52.2208L71.9659 54.4993V31.713Z" fill="white"/>
<path fill-rule="evenodd" clip-rule="evenodd" d="M82.4639 6.77957L50.5685 0L43.7889 31.8954L75.6843 38.675L82.4639 6.77957ZM55.2281 7.35524L74.4422 11.4393L70.3581 30.6534L51.144 26.5693L55.2281 7.35524Z" fill="white"/>
<path d="M67.7634 15.7609L60.0778 14.1272L58.4442 21.8129L66.1298 23.4465L67.7634 15.7609Z" fill="white"/>
</g>
<g filter="url(#filter3_d)">
<path fill-rule="evenodd" clip-rule="evenodd" d="M4 106.75C4 81.1474 24.7553 60.392 50.3583 60.392H154.075C179.678 60.392 200.433 81.1474 200.433 106.75V198.018C200.433 221.899 182.292 241.872 158.522 244.163L108.916 248.943C106.028 249.221 103.12 249.227 100.23 248.962L46.1186 243.992C22.2588 241.801 4 221.789 4 197.828V106.75ZM86.7597 136.55C86.7597 151.49 77.0279 163.6 65.0232 163.6C53.0184 163.6 43.2867 151.49 43.2867 136.55C43.2867 121.611 53.0184 109.501 65.0232 109.501C77.0279 109.501 86.7597 121.611 86.7597 136.55ZM139.41 163.6C151.415 163.6 161.147 151.49 161.147 136.55C161.147 121.611 151.415 109.501 139.41 109.501C127.406 109.501 117.674 121.611 117.674 136.55C117.674 151.49 127.406 163.6 139.41 163.6ZM150.148 204.347C150.148 194.176 141.904 185.931 131.733 185.931H109.966C99.4452 185.932 91.5505 194.8 91.5503 204.347C91.5503 205.946 91.783 207.482 92.1816 208.951H96.1543C98.2759 208.951 99.3759 207.637 100.292 206.543C100.501 206.293 100.701 206.055 100.901 205.846C100.817 205.358 100.758 204.861 100.758 204.347C100.758 199.448 104.847 195.139 109.966 195.139H131.733C136.811 195.139 140.94 199.269 140.94 204.347C140.94 209.425 136.811 213.555 131.733 213.555H117.345C117.157 213.825 116.949 214.199 116.694 214.655C115.669 216.49 113.902 219.656 109.784 222.744C109.815 222.745 109.844 222.749 109.874 222.754C109.904 222.758 109.934 222.763 109.966 222.763H131.733C141.903 222.763 150.148 214.518 150.148 204.347ZM113.939 199.743C114.337 201.212 114.57 202.748 114.57 204.347C114.57 214.108 106.48 222.763 96.1541 222.763H72.7005C62.5298 222.762 54.2851 214.518 54.2849 204.347C54.2851 194.176 62.5299 185.932 72.7006 185.931L96.1542 185.931C96.1858 185.931 96.2162 185.936 96.2466 185.94C96.2763 185.945 96.3059 185.949 96.3366 185.95C92.2189 189.038 90.4514 192.204 89.4263 194.039C89.1719 194.495 88.9631 194.869 88.7756 195.139L72.7008 195.139C67.6225 195.139 63.493 199.269 63.493 204.347C63.493 209.425 67.6225 213.555 72.7008 213.555H96.1544C101.274 213.555 105.362 209.246 105.362 204.347C105.362 203.833 105.303 203.336 105.22 202.847C105.42 202.639 105.619 202.401 105.828 202.151C106.744 201.057 107.844 199.743 109.966 199.743H113.939Z" fill="white"/>
</g>
</g>
<g filter="url(#filter4_d)">
<path d="M332.868 160.927C332.868 174.227 330.028 184.612 324.35 192.08C318.672 199.498 310.743 203.206 300.563 203.206C291.56 203.206 284.373 199.753 279.002 192.848L278.004 201.672H258.054V83.8116H280.23V126.091C285.345 120.106 292.071 117.113 300.41 117.113C310.538 117.113 318.468 120.847 324.197 128.316C329.977 135.733 332.868 146.195 332.868 159.699V160.927ZM310.691 159.315C310.691 150.926 309.362 144.813 306.701 140.977C304.042 137.089 300.078 135.145 294.808 135.145C287.749 135.145 282.89 138.035 280.23 143.816V176.581C282.941 182.412 287.852 185.328 294.962 185.328C302.123 185.328 306.83 181.798 309.081 174.739C310.155 171.362 310.691 166.222 310.691 159.315ZM370.005 201.672H347.753V83.8116H370.005V201.672ZM384.891 159.393C384.891 151.157 386.477 143.816 389.649 137.37C392.82 130.925 397.374 125.937 403.307 122.408C409.292 118.878 416.223 117.113 424.102 117.113C435.304 117.113 444.435 120.541 451.495 127.395C458.605 134.25 462.57 143.56 463.388 155.325L463.542 161.003C463.542 173.741 459.986 183.972 452.875 191.697C445.766 199.369 436.226 203.206 424.255 203.206C412.284 203.206 402.719 199.369 395.557 191.697C388.446 184.023 384.891 173.588 384.891 160.39V159.393ZM407.067 161.003C407.067 168.882 408.551 174.917 411.517 179.112C414.484 183.257 418.73 185.328 424.255 185.328C429.627 185.328 433.821 183.282 436.838 179.189C439.857 175.046 441.366 168.447 441.366 159.393C441.366 151.668 439.857 145.683 436.838 141.437C433.821 137.191 429.574 135.068 424.102 135.068C418.679 135.068 414.484 137.191 411.517 141.437C408.551 145.632 407.067 152.155 407.067 161.003ZM507.125 143.432L521.09 118.648H544.801L521.167 159.315L545.797 201.672H522.011L507.202 175.583L492.47 201.672H468.606L493.237 159.315L469.679 118.648H493.468L507.125 143.432ZM578.869 201.672H556.617V83.8116H578.869V201.672ZM620.611 201.672H598.359V118.648H620.611V201.672ZM597.055 97.1629C597.055 93.8378 598.155 91.1011 600.355 88.9526C602.605 86.8042 605.649 85.7298 609.485 85.7298C613.271 85.7298 616.289 86.8042 618.539 88.9526C620.79 91.1011 621.915 93.8378 621.915 97.1629C621.915 100.539 620.766 103.301 618.463 105.45C616.212 107.598 613.22 108.673 609.485 108.673C605.752 108.673 602.733 107.598 600.431 105.45C598.18 103.301 597.055 100.539 597.055 97.1629ZM659.361 118.648L660.052 128.239C665.986 120.822 673.94 117.113 683.915 117.113C692.714 117.113 699.262 119.696 703.558 124.863C707.855 130.03 710.055 137.754 710.157 148.036V201.672H687.982V148.573C687.982 143.867 686.958 140.465 684.913 138.368C682.866 136.219 679.465 135.145 674.708 135.145C668.466 135.145 663.786 137.805 660.665 143.125V201.672H638.49V118.648H659.361ZM757.194 168.37L749.213 176.35V201.672H727.039V83.8116H749.213V149.11L753.511 143.586L774.765 118.648H801.391L771.389 153.253L804 201.672H778.525L757.194 168.37Z" fill="white"/>
</g>
<defs>
<filter id="filter0_d" x="0" y="0" width="204.433" height="257.156" filterUnits="userSpaceOnUse" color-interpolation-filters="sRGB">
<feFlood flood-opacity="0" result="BackgroundImageFix"/>
<feColorMatrix in="SourceAlpha" type="matrix" values="0 0 0 0 0 0 0 0 0 0 0 0 0 0 0 0 0 0 127 0"/>
<feOffset dy="4"/>
<feGaussianBlur stdDeviation="2"/>
<feColorMatrix type="matrix" values="0 0 0 0 0 0 0 0 0 0 0 0 0 0 0 0 0 0 0.25 0"/>
<feBlend mode="normal" in2="BackgroundImageFix" result="effect1_dropShadow"/>
<feBlend mode="normal" in="SourceGraphic" in2="effect1_dropShadow" result="shape"/>
</filter>
<filter id="filter1_d" x="117.969" y="0" width="46.675" height="62.4993" filterUnits="userSpaceOnUse" color-interpolation-filters="sRGB">
<feFlood flood-opacity="0" result="BackgroundImageFix"/>
<feColorMatrix in="SourceAlpha" type="matrix" values="0 0 0 0 0 0 0 0 0 0 0 0 0 0 0 0 0 0 127 0"/>
<feOffset dy="4"/>
<feGaussianBlur stdDeviation="2"/>
<feColorMatrix type="matrix" values="0 0 0 0 0 0 0 0 0 0 0 0 0 0 0 0 0 0 0.1 0"/>
<feBlend mode="normal" in2="BackgroundImageFix" result="effect1_dropShadow"/>
<feBlend mode="normal" in="SourceGraphic" in2="effect1_dropShadow" result="shape"/>
</filter>
<filter id="filter2_d" x="39.7889" y="0" width="46.675" height="62.4993" filterUnits="userSpaceOnUse" color-interpolation-filters="sRGB">
<feFlood flood-opacity="0" result="BackgroundImageFix"/>
<feColorMatrix in="SourceAlpha" type="matrix" values="0 0 0 0 0 0 0 0 0 0 0 0 0 0 0 0 0 0 127 0"/>
<feOffset dy="4"/>
<feGaussianBlur stdDeviation="2"/>
<feColorMatrix type="matrix" values="0 0 0 0 0 0 0 0 0 0 0 0 0 0 0 0 0 0 0.1 0"/>
<feBlend mode="normal" in2="BackgroundImageFix" result="effect1_dropShadow"/>
<feBlend mode="normal" in="SourceGraphic" in2="effect1_dropShadow" result="shape"/>
</filter>
<filter id="filter3_d" x="0" y="60.392" width="204.433" height="196.764" filterUnits="userSpaceOnUse" color-interpolation-filters="sRGB">
<feFlood flood-opacity="0" result="BackgroundImageFix"/>
<feColorMatrix in="SourceAlpha" type="matrix" values="0 0 0 0 0 0 0 0 0 0 0 0 0 0 0 0 0 0 127 0"/>
<feOffset dy="4"/>
<feGaussianBlur stdDeviation="2"/>
<feColorMatrix type="matrix" values="0 0 0 0 0 0 0 0 0 0 0 0 0 0 0 0 0 0 0.1 0"/>
<feBlend mode="normal" in2="BackgroundImageFix" result="effect1_dropShadow"/>
<feBlend mode="normal" in="SourceGraphic" in2="effect1_dropShadow" result="shape"/>
</filter>
<filter id="filter4_d" x="254.054" y="83.8116" width="553.946" height="127.395" filterUnits="userSpaceOnUse" color-interpolation-filters="sRGB">
<feFlood flood-opacity="0" result="BackgroundImageFix"/>
<feColorMatrix in="SourceAlpha" type="matrix" values="0 0 0 0 0 0 0 0 0 0 0 0 0 0 0 0 0 0 127 0"/>
<feOffset dy="4"/>
<feGaussianBlur stdDeviation="2"/>
<feColorMatrix type="matrix" values="0 0 0 0 0 0 0 0 0 0 0 0 0 0 0 0 0 0 0.25 0"/>
<feBlend mode="normal" in2="BackgroundImageFix" result="effect1_dropShadow"/>
<feBlend mode="normal" in="SourceGraphic" in2="effect1_dropShadow" result="shape"/>
</filter>
</defs>
</svg>
